#N canvas 95 130 1409 839 10;
#N canvas 0 22 450 300 (subpatch) 0;
#X array harmonics3 1.26775e+06 float 2;
#X coords 0 1 1.26775e+06 -1 200 140 1;
#X restore 813 57 graph;
#X obj 277 281 bng 15 250 50 0 empty empty empty 17 7 0 10 -262144
-1 -1;
#X obj 18 226 soundfiler;
#X obj 114 434 metro 200;
#X obj 107 384 tgl 15 0 empty empty empty 17 7 0 10 -262144 -1 -1 1
1;
#X obj 174 507 snapshot~;
#X floatatom 164 577 5 0 0 0 - - -;
#X obj 277 341 tabplay~ harmonics3;
#X obj 381 198 soundfiler;
#X floatatom 381 220 0 0 0 0 - - -;
#X obj 297 662 output~;
#X msg 201 339 stop;
#X text 29 113 This doesn't work right.;
#X text 376 118 Reading raw with these settings seems to help but it
still sounds really low quality (and with clicks);
#X text 253 264 Click here to play contents of table;
#X text 20 98 ATTEMPT #1;
#X text 364 100 ATTEMPT #2;
#X text 19 43 Experiment 1: use bird sounds to create envelope for
my voice;
#X msg 381 151 read -resize -raw 0 1 3 l audioFiles/HA-02.aif harmonics3
\; pd dsp 1 \;;
#N canvas 0 22 450 300 (subpatch) 0;
#X array triplet1 38155 float 2;
#X coords 0 1 38155 -1 200 140 1;
#X restore 810 248 graph;
#X text 69 190 comment;
#X msg 20 134 read -resize audioFiles/sung/harmonics/03.aif harmonics3
;
#X msg 31 168 read -resize audioFiles/triplets/01.aif triplet1;
#X obj 412 431 tabplay~ triplet1;
#X obj 440 334 tgl 15 0 empty empty empty 17 7 0 10 -262144 -1 -1 1
1;
#X obj 403 470 env~;
#X obj 320 411 *~ 2;
#X obj 389 570 line~;
#X floatatom 464 532 5 0 0 0 - - -;
#X msg 386 536 \$1 23;
#X obj 362 614 snapshotEvery~ 1;
#X obj 300 562 *~;
#X obj 428 378 metro 1000;
#X obj 512 383 bng 15 250 50 0 empty empty empty 17 7 0 10 -262144
-1 -1;
#X floatatom 444 662 5 0 0 0 - - -;
#X floatatom 108 672 5 0 0 0 - - -;
#X obj 109 642 snapshotEvery~ 200;
#X obj 186 704 env~;
#X floatatom 192 757 5 0 0 0 - - -;
#X obj 730 581 output~;
#X obj 724 519 tabplay~ triplet1;
#X obj 723 473 bng 15 250 50 0 empty empty empty 17 7 0 10 -262144
-1 -1;
#X connect 1 0 7 0;
#X connect 3 0 5 0;
#X connect 4 0 3 0;
#X connect 5 0 6 0;
#X connect 7 0 5 0;
#X connect 7 0 26 0;
#X connect 8 0 9 0;
#X connect 11 0 7 0;
#X connect 18 0 8 0;
#X connect 21 0 2 0;
#X connect 22 0 2 0;
#X connect 23 0 25 0;
#X connect 24 0 32 0;
#X connect 25 0 28 0;
#X connect 25 0 29 0;
#X connect 26 0 31 0;
#X connect 27 0 30 0;
#X connect 29 0 27 0;
#X connect 30 0 34 0;
#X connect 30 0 31 1;
#X connect 31 0 10 0;
#X connect 31 0 10 1;
#X connect 31 0 36 0;
#X connect 31 0 37 0;
#X connect 32 0 23 0;
#X connect 33 0 23 0;
#X connect 36 0 35 0;
#X connect 37 0 38 0;
#X connect 40 0 39 0;
#X connect 41 0 40 0;
