#N canvas 176 61 604 462 10;
#X obj 106 236 polySampler;
#X msg 127 166 rewind;
#X obj 106 291 output~;
#X text 104 30 Click here to play the piece;
#X text 178 151 Click here to stop sending note messages and rewind
to the beginning of the list (playback may not stop immediately as
existing notes are still being played);
#X msg 106 50 read qlist.txt \, rewind \, tempo 1 \, bang;
#X connect 0 0 2 0;
#X connect 0 0 2 1;
#X connect 1 0 0 0;
#X connect 5 0 0 0;
