#N canvas 271 50 1265 928 12;
#N canvas 0 22 1408 923 samples 0;
#N canvas 0 22 450 300 (subpatch) 0;
#X array sample1 1.26775e+06 float 0;
#X coords 0 1.02 1.26775e+06 -1.02 200 130 1;
#X restore 26 24 graph;
#X text 51 360 ------ 4 seconds ------;
#N canvas 0 22 450 300 (subpatch) 0;
#X array sample2 1.26775e+06 float 0;
#X coords 0 1.02 1.26775e+06 -1.02 200 130 1;
#X restore 31 201 graph;
#X restore 983 320 pd samples;
#N canvas 153 345 1004 577 recorder 0;
#X obj 220 21 inlet;
#X obj 174 174 adc~ 1;
#X obj 174 202 hip~ 5;
#X obj 243 232 line~;
#X obj 174 231 *~;
#X msg 243 204 1;
#X obj 302 169 del 3990;
#X msg 279 204 0 10;
#X obj 174 282 tabwrite~ sample1;
#X msg 26 117 set \$1 \, bang;
#X msg 348 140 stop;
#X msg 302 140 bang;
#X obj 220 50 route record stop reload browse;
#X obj 411 158 loadbang;
#X obj 514 113 openpanel;
#X msg 514 85 bang;
#X text 556 84 <-- browse for samples;
#X text 482 209 v-- re-read original samples;
#X obj 411 295 soundfiler;
#X msg 514 140 read \$1 sample1;
#X obj 514 167 soundfiler;
#X obj 26 88 makefilename sample%d;
#X msg 419 238 read -resize audioFiles/sung/harmonics/03.aif sample1
;
#X connect 0 0 12 0;
#X connect 1 0 2 0;
#X connect 2 0 4 0;
#X connect 3 0 4 1;
#X connect 4 0 8 0;
#X connect 5 0 3 0;
#X connect 6 0 7 0;
#X connect 7 0 3 0;
#X connect 9 0 8 0;
#X connect 10 0 6 0;
#X connect 11 0 6 0;
#X connect 12 0 11 0;
#X connect 12 0 5 0;
#X connect 12 0 21 0;
#X connect 12 1 7 0;
#X connect 12 1 10 0;
#X connect 12 2 22 0;
#X connect 12 3 15 0;
#X connect 13 0 22 0;
#X connect 14 0 19 0;
#X connect 15 0 14 0;
#X connect 19 0 20 0;
#X connect 21 0 9 0;
#X connect 22 0 18 0;
#X restore 983 507 pd recorder;
#X msg 983 369 record 1;
#X msg 983 425 stop;
#X msg 983 397 record 2;
#X text 71 272 ARGUMENTS FOR NOTES:;
#X text 71 294 pitch in halftones;
#X text 71 318 amplitude (dB);
#X text 71 366 sample number;
#X text 71 342 duration (msec);
#X text 71 390 start location (msec);
#X text 71 414 rise time (msec);
#X text 71 438 decay time (msec);
#X msg 983 452 reload;
#X msg 983 480 browse;
#X text 99 233 POLYPHONIC SAMPLER;
#X obj 599 552 sampvoice;
#X obj 683 240 r note;
#X obj 683 267 unpack 0 0 0 0 0 0 0;
#X obj 656 299 t b f;
#X obj 596 332 f;
#X obj 632 332 + 1;
#X obj 604 369 mod 1e+06;
#X obj 596 398 makenote 64;
#X obj 596 426 poly 8 1;
#X obj 596 453 stripnote;
#X obj 669 495 pack 0 0 0 0 0 0 0 0;
#X obj 669 523 route 1 2 3 4 5 6 7 8;
#X text 981 347 record \, etc.;
#X text 387 426 allocate sampler voice;
#X text 413 451 drop note off again;
#X obj 482 148 qlist;
#X text 59 486 Here we take the previous patch and make it polyphonic
\, with 8 voices. The single voice which we had before has been made
into an abstraction \, "sampvoice.pd" \, which we instantiate in 8
copies. Earlier we used sends and receives to pass messages to "cutoff"
\, etc \, but here if we did that the copies of sampvoice would be
sending messages to each other \, so we combine the control and the
audio computation in the sampvoice abstraction without using send and
receive. Click on one to see how.;
#X text 60 636 The "poly" object essentially repeats pitch and velocity
pairs to its output \, but also sending a voice number from its left
outlet. To use it \, we unpack the 7 parameters \, calculate the voice
number \, repack the message as 8 parameters with voice number first
\, and use "route" to send it to one of the 8 voices.;
#X text 60 738 There's some bother because poly expects to track note
on and note off messages separately as they would come from a MIDI
keyboard. So we assign each note a unique fake "pitch" \, use makenote
to generate the note-off messages \, and run poly on the resulting
stream. We then discard both pitch and velocity (using the velocity
only to strip note-offs) and rebuild the original message adding the
voice number we just scored.;
#X text 906 862 updated for Pd version 0.33;
#X text 301 331 increment mod 1e+06 to make tag;
#X text 328 350 (acts like a MIDI pitch to;
#X text 329 369 identify the note to "poly");
#X text 310 398 supply delayed note-off message;
#X obj 599 745 sampvoice;
#X obj 599 717 sampvoice;
#X obj 599 690 sampvoice;
#X obj 599 662 sampvoice;
#X obj 599 635 sampvoice;
#X obj 599 607 sampvoice;
#X obj 599 579 sampvoice;
#X obj 922 743 r #;
#X obj 922 796 r comment;
#X floatatom 514 858 5 0 0 0 - - -;
#X obj 508 829 snapshotEvery~ 200;
#X obj 891 257 print msg;
#X obj 600 789 outlet~;
#X obj 482 101 inlet;
#X text 311 -2 EVAN L.: Most of this patch has been unchanged from
the sample patch that comes with Pd. Main changes: changed the sample
audio file (in [pd recorder]) \, added an inlet for sending the qlist
message \, and an outlet (for the resulting audio signal).;
#X connect 2 0 1 0;
#X connect 3 0 1 0;
#X connect 4 0 1 0;
#X connect 13 0 1 0;
#X connect 14 0 1 0;
#X connect 16 0 46 0;
#X connect 17 0 18 0;
#X connect 17 0 51 0;
#X connect 18 0 19 0;
#X connect 18 1 26 2;
#X connect 18 2 23 2;
#X connect 18 2 26 3;
#X connect 18 3 26 4;
#X connect 18 4 26 5;
#X connect 18 5 26 6;
#X connect 18 6 26 7;
#X connect 19 0 20 0;
#X connect 19 1 26 1;
#X connect 20 0 21 0;
#X connect 20 0 23 0;
#X connect 21 0 22 0;
#X connect 22 0 20 1;
#X connect 23 0 24 0;
#X connect 23 1 24 1;
#X connect 24 0 25 0;
#X connect 24 2 25 1;
#X connect 25 0 26 0;
#X connect 26 0 27 0;
#X connect 27 0 16 1;
#X connect 27 1 46 1;
#X connect 27 2 45 1;
#X connect 27 3 44 1;
#X connect 27 4 43 1;
#X connect 27 5 42 1;
#X connect 27 6 41 1;
#X connect 27 7 40 1;
#X connect 40 0 50 0;
#X connect 40 0 52 0;
#X connect 41 0 40 0;
#X connect 42 0 41 0;
#X connect 43 0 42 0;
#X connect 44 0 43 0;
#X connect 45 0 44 0;
#X connect 46 0 45 0;
#X connect 50 0 49 0;
#X connect 53 0 31 0;
