#N canvas 322 277 450 300 10;
#X obj 189 194 snapshot~;
#X obj 225 122 metro \$1;
#X obj 248 74 loadbang;
#X obj 188 247 outlet;
#X obj 122 37 inlet~;
#X obj 332 39 inlet;
#X connect 0 0 3 0;
#X connect 1 0 0 0;
#X connect 2 0 1 0;
#X connect 4 0 0 0;
#X connect 5 0 1 1;
